<svg version="1.1" id="Layer_1" xmlns="http://www.w3.org/2000/svg" x="0" y="0" viewBox="0 0 20 20" xml:space="preserve" class="icn icn-git"><path d="M5.13 15.938c-.069.078-.156.065-.26-.039-.113-.095-.13-.178-.052-.247.069-.078.156-.065.26.039.104.095.122.177.052.247zm-.547-.795c.078.104.078.187 0 .247-.069.052-.143.022-.221-.091-.078-.113-.078-.191 0-.234.078-.061.152-.035.221.078zm-.794-.781c-.043.061-.1.069-.169.026-.087-.043-.117-.095-.091-.156.026-.043.082-.052.169-.026.087.043.117.095.091.156zm.404.443c-.052.061-.122.048-.208-.039-.078-.095-.087-.165-.026-.208.052-.052.122-.039.208.039.078.095.086.164.026.208zm1.679 1.458c-.035.104-.117.13-.247.078-.148-.035-.204-.1-.169-.195.035-.095.117-.126.247-.091.139.043.195.113.169.208zm.821.065c0 .095-.069.143-.208.143-.148.017-.221-.03-.221-.143 0-.095.069-.143.208-.143.147-.017.221.03.221.143zm.755-.13c.017.087-.043.148-.182.182-.139.035-.217 0-.234-.104-.017-.104.043-.169.182-.195.138-.018.217.021.234.117zM20 3.75v12.5c0 1.033-.367 1.916-1.1 2.65S17.283 20 16.25 20h-2.917c-.139 0-.245-.004-.319-.013-.074-.009-.158-.03-.254-.065s-.165-.098-.208-.189a.846.846 0 01-.065-.358v-3.112c0-.842-.226-1.458-.677-1.849.495-.052.94-.13 1.335-.234s.803-.273 1.224-.508a3.632 3.632 0 001.055-.866c.282-.343.512-.799.69-1.367.178-.569.267-1.222.267-1.96 0-1.05-.343-1.944-1.029-2.682.321-.79.286-1.675-.104-2.656-.243-.078-.595-.03-1.055.143-.46.174-.859.365-1.198.573l-.495.312c-.807-.226-1.641-.339-2.5-.339s-1.693.114-2.5.339a12.15 12.15 0 00-.553-.351c-.23-.139-.592-.306-1.087-.501s-.869-.254-1.12-.176c-.382.981-.413 1.866-.092 2.656-.685.738-1.028 1.632-1.028 2.682 0 .738.089 1.389.267 1.953s.406 1.02.684 1.367.627.638 1.048.872.829.404 1.224.508c.395.104.84.182 1.335.234-.347.313-.56.76-.638 1.341a2.554 2.554 0 01-.586.195c-.208.043-.456.065-.742.065s-.571-.093-.853-.28c-.282-.187-.523-.458-.723-.814-.165-.278-.375-.503-.632-.677s-.471-.278-.645-.313l-.26-.039c-.182 0-.308.02-.378.059-.069.039-.091.089-.065.15s.065.122.117.182.109.113.169.156l.091.065c.192.089.381.254.567.497.187.243.323.464.41.664l.13.299c.113.33.304.597.573.801.269.204.56.334.872.391.313.056.614.087.905.091.291.004.532-.011.723-.046l.299-.052c0 .33.002.777.007 1.341l.007.885c0 .191-.048.336-.143.436a.5.5 0 01-.286.169 3.233 3.233 0 01-.43.021H3.75c-1.033 0-1.916-.367-2.65-1.1S0 17.283 0 16.25V3.75C0 2.717.367 1.834 1.1 1.1S2.717 0 3.75 0h12.5c1.033 0 1.916.367 2.65 1.1S20 2.717 20 3.75z"/></svg>