<svg class="icn" enable-background="new 0 0 512 512"  viewBox="0 0 512 512" xmlns="http://www.w3.org/2000/svg"><g><path d="m296 312h-216c-8.836 0-16 7.164-16 16s7.164 16 16 16h216c22.158 0 40 17.944 40 40 0 35.761-43.299 53.248-68.292 28.281-6.252-6.245-16.382-6.24-22.627.011s-6.24 16.382.011 22.627c13.608 13.595 31.687 21.081 50.908 21.081 39.701 0 72-32.299 72-72 0-39.806-32.225-72-72-72z"/><path d="m48 216h160c35.353 0 64-28.6 64-64 0-35.29-28.71-64-64-64-17.107 0-33.181 6.66-45.26 18.753-6.245 6.251-6.239 16.382.013 22.627 6.252 6.246 16.383 6.24 22.627-.013 6.034-6.04 14.067-9.367 22.62-9.367 28.663 0 42.576 34.699 22.62 54.633-6.034 6.04-14.067 9.367-22.62 9.367h-160c-8.836 0-16 7.164-16 16s7.164 16 16 16z"/><path d="m420.969 279.204c50.532-6.247 91.031-49.377 91.031-103.204 0-57.346-46.654-104-104-104-27.784 0-53.9 10.821-73.537 30.469-6.247 6.25-6.244 16.381.006 22.627s16.381 6.244 22.627-.006c13.593-13.6 31.671-21.09 50.904-21.09 39.701 0 72 32.299 72 72 0 39.774-32.2 72-72 72h-392c-8.836 0-16 7.164-16 16s7.164 16 16 16c428.098 0 401.176.442 404.969-.796z"/><path d="m56 128c4.095 0 8.189-1.562 11.313-4.687l11.314-11.313h17.373c39.701 0 72-32.299 72-72v-24c0-8.836-7.164-16-16-16h-24c-39.701 0-72 32.299-72 72v17.373l-11.313 11.313c-10.11 10.109-2.812 27.314 11.313 27.314zm32-56c0-22.056 17.944-40 40-40h8v8c0 22.056-17.944 40-40 40h-8z"/><path d="m132.687 388.687-11.314 11.313h-17.373c-39.701 0-72 32.299-72 72v24c0 8.836 7.164 16 16 16h24c39.701 0 72-32.299 72-72v-17.373l11.313-11.313c6.249-6.248 6.249-16.379 0-22.627-6.248-6.249-16.378-6.249-22.626 0zm-20.687 51.313c0 22.056-17.944 40-40 40h-8v-8c0-22.056 17.944-40 40-40h8z"/><path d="m440 336h-17.373l-11.313-11.313c-6.248-6.249-16.379-6.249-22.627 0-6.249 6.248-6.249 16.379 0 22.627l11.313 11.313v17.373c0 39.701 32.299 72 72 72h24c8.836 0 16-7.164 16-16v-24c0-39.701-32.299-72-72-72zm40 80h-8c-22.056 0-40-17.944-40-40v-8h8c22.056 0 40 17.944 40 40z"/></g></svg>