<?xml version="1.0" encoding="utf-8"?>
<!-- Generator: Adobe Illustrator 23.0.2, SVG Export Plug-In . SVG Version: 6.00 Build 0)  -->
<svg version="1.1" id="Capa_1" xmlns="http://www.w3.org/2000/svg" xmlns:xlink="http://www.w3.org/1999/xlink" x="0px" y="0px"
	 viewBox="0 0 20 19.995" style="enable-background:new 0 0 20 19.995;" xml:space="preserve">
<g>
	<g>
		<path id="LinkedIn__x28_alt_x29_" d="M18.522,0H1.478C0.66,0,0,0.642,0,1.432v17.132c0,0.79,0.66,1.432,1.478,1.432h17.043
			c0.814,0,1.478-0.642,1.478-1.432V1.432C19.995,0.642,19.335,0,18.522,0z M6.062,16.736H3.04V7.708h3.022V16.736z M4.551,6.476
			H4.533c-1.013,0-1.669-0.693-1.669-1.562c0-0.883,0.674-1.557,1.711-1.557c1.032,0,1.669,0.674,1.688,1.557
			C6.262,5.783,5.607,6.476,4.551,6.476z M16.955,16.736h-3.022v-4.83c0-1.213-0.437-2.041-1.53-2.041
			c-0.837,0-1.33,0.558-1.548,1.097c-0.079,0.191-0.102,0.46-0.102,0.73v5.044H7.731c0,0,0.042-8.182,0-9.028h3.022v1.278
			c0.4-0.614,1.116-1.492,2.72-1.492c1.99,0,3.477,1.288,3.477,4.063L16.955,16.736L16.955,16.736z M10.735,9.019
			C10.739,9.01,10.748,9,10.753,8.991v0.028H10.735z"/>
	</g>
</g>
</svg>
