<?xml version="1.0" encoding="utf-8"?>
<!-- Generator: Adobe Illustrator 23.0.2, SVG Export Plug-In . SVG Version: 6.00 Build 0)  -->
<svg version="1.1"
	 id="svg2" xmlns:cc="http://creativecommons.org/ns#" xmlns:dc="http://purl.org/dc/elements/1.1/" xmlns:inkscape="http://www.inkscape.org/namespaces/inkscape" xmlns:rdf="http://www.w3.org/1999/02/22-rdf-syntax-ns#" xmlns:sodipodi="http://sodipodi.sourceforge.net/DTD/sodipodi-0.dtd" xmlns:svg="http://www.w3.org/2000/svg"
	 xmlns="http://www.w3.org/2000/svg" xmlns:xlink="http://www.w3.org/1999/xlink" x="0px" y="0px" viewBox="0 0 20 20"
	 style="enable-background:new 0 0 20 20;" xml:space="preserve">
<g id="layer3" transform="translate(0,-99.999988)">
	<path id="rect4208" d="M4,100c-2.216,0-4,1.784-4,4v12c0,2.216,1.784,4,4,4h12c2.216,0,4-1.784,4-4v-12c0-2.216-1.784-4-4-4H4z
		 M3.725,104.219h12.549c0.728,0,1.336,0.608,1.336,1.337v8.889c0,0.728-0.608,1.336-1.336,1.336H3.725
		c-0.728,0-1.336-0.608-1.336-1.336v-8.889C2.389,104.828,2.997,104.219,3.725,104.219z M4.53,105.619l5.47,5.662l5.495-5.662H4.53z
		 M3.789,106.291v7.288l3.581-3.581L3.789,106.291z M16.211,106.318l-3.601,3.71l3.601,3.601V106.318z M8.065,110.717l-3.664,3.664
		h11.148l-3.635-3.635l-1.555,1.602c-0.192,0.198-0.509,0.203-0.707,0.011c-0.004-0.004-0.008-0.008-0.012-0.012L8.065,110.717z"/>
</g>
</svg>
