<?xml version="1.0" encoding="utf-8"?>
<!-- Generator: Adobe Illustrator 23.0.2, SVG Export Plug-In . SVG Version: 6.00 Build 0)  -->
<svg version="1.1" id="Layer_1" xmlns="http://www.w3.org/2000/svg" xmlns:xlink="http://www.w3.org/1999/xlink" x="0px" y="0px"
	 viewBox="0 0 20 20" style="enable-background:new 0 0 20 20;" xml:space="preserve">
<g id="facebook__x2C__social__x2C__media_x2C__icon_x2C_">
	<path style="fill-rule:evenodd;clip-rule:evenodd;" d="M17.437,0H2.563C1.155,0,0,1.155,0,2.563v14.873C0,18.845,1.155,20,2.563,20
		h14.873C18.845,20,20,18.845,20,17.437V2.563C20,1.155,18.845,0,17.437,0z M12.967,8.953L12.871,10h-1.996c0,3,0,6.667,0,6.667
		H8.208c0,0,0-3.625,0-6.667H6.875V8.943v-1.61h1.333v-1.21c0-1.092,0.522-2.799,2.811-2.799l2.064,0.009v2.291c0,0-1.257,0-1.5,0
		C11.34,5.625,11,5.742,11,6.262v1.072h2.114L12.967,8.953z"/>
</g>
</svg>
