<?xml version="1.0" encoding="utf-8"?>
<!-- Generator: Adobe Illustrator 23.0.2, SVG Export Plug-In . SVG Version: 6.00 Build 0)  -->
<svg version="1.1" id="Layer_1" xmlns="http://www.w3.org/2000/svg" xmlns:xlink="http://www.w3.org/1999/xlink" x="0px" y="0px"
	 viewBox="0 0 20 20" style="enable-background:new 0 0 20 20;" xml:space="preserve">
<path d="M11.042,9.661c0-0.373-0.178-0.66-0.534-0.859s-0.69-0.204-1.003-0.013C9.132,8.963,8.947,9.277,8.952,9.733
	c0.004,0.456,0.193,0.762,0.566,0.918c0.339,0.2,0.69,0.182,1.055-0.052C10.938,10.365,11.094,10.052,11.042,9.661z M12.083,9.453
	c0.069,0.573-0.087,1.098-0.469,1.576c-0.382,0.477-0.859,0.742-1.432,0.794c-0.573,0.052-1.089-0.122-1.549-0.521
	s-0.703-0.89-0.729-1.471C7.886,9.405,7.997,9.002,8.236,8.62C8.474,8.238,8.789,7.96,9.18,7.786
	c0.608-0.269,1.222-0.226,1.842,0.13C11.643,8.273,11.997,8.785,12.083,9.453z M14.323,4.362c-0.174,0.182-0.406,0.33-0.697,0.443
	s-0.521,0.182-0.69,0.208c-0.169,0.026-0.445,0.061-0.827,0.104c-1.345,0.174-2.752,0.174-4.219,0
	C7.509,5.065,7.235,5.024,7.07,4.993c-0.165-0.03-0.393-0.1-0.684-0.208s-0.527-0.25-0.71-0.423C5.79,4.197,5.946,4.063,6.146,3.958
	c0.2-0.104,0.373-0.171,0.521-0.202c0.148-0.03,0.352-0.067,0.612-0.111c1.719-0.304,3.49-0.308,5.312-0.013
	c0.286,0.043,0.508,0.08,0.664,0.111c0.156,0.03,0.343,0.1,0.56,0.208C14.032,4.06,14.201,4.197,14.323,4.362z M14.87,14.076
	c0-0.061,0.024-0.176,0.072-0.345s0.061-0.308,0.039-0.417c-0.022-0.109-0.098-0.18-0.228-0.215c-1.398,0.92-2.982,1.38-4.753,1.38
	s-3.359-0.46-4.766-1.38l-0.156,0.078l-0.065,0.156c0.226,1.337,0.404,2.248,0.534,2.734c0.408,0.703,1.293,1.172,2.656,1.406
	c2.161,0.399,4.019,0.169,5.573-0.69c0.295-0.165,0.508-0.388,0.638-0.671S14.642,15.46,14.707,15S14.826,14.232,14.87,14.076z
	 M16.563,5.052c0.078-0.46,0.043-0.786-0.104-0.977c-0.373-0.477-1.046-0.859-2.018-1.146c-1.875-0.547-3.989-0.703-6.341-0.469
	C6.953,2.565,5.972,2.765,5.156,3.06c-0.33,0.13-0.588,0.239-0.775,0.326C4.195,3.472,3.991,3.62,3.77,3.828
	C3.548,4.036,3.42,4.271,3.385,4.531c0.069,0.59,0.152,1.189,0.247,1.797s0.221,1.35,0.378,2.227
	c0.156,0.877,0.26,1.471,0.313,1.784c0.009,0.043,0.03,0.178,0.065,0.404c0.035,0.226,0.065,0.382,0.091,0.469
	c0.026,0.087,0.078,0.204,0.156,0.352s0.174,0.269,0.286,0.365c0.911,0.694,2.144,1.128,3.698,1.302
	c2.248,0.243,4.158-0.03,5.729-0.82c0.208-0.113,0.38-0.213,0.514-0.299s0.269-0.213,0.404-0.378s0.219-0.339,0.254-0.521
	C15.938,8.893,16.285,6.84,16.563,5.052z M20,3.75v12.5c0,1.033-0.367,1.916-1.1,2.65S17.283,20,16.25,20H3.75
	c-1.033,0-1.916-0.367-2.65-1.1S0,17.283,0,16.25V3.75C0,2.717,0.367,1.834,1.1,1.1S2.717,0,3.75,0h12.5
	c1.033,0,1.916,0.367,2.65,1.1S20,2.717,20,3.75z"/>
</svg>
