<?xml version="1.0" encoding="utf-8"?>
<!-- Generator: Adobe Illustrator 23.0.2, SVG Export Plug-In . SVG Version: 6.00 Build 0)  -->
<svg version="1.1" id="Layer_1" xmlns="http://www.w3.org/2000/svg" xmlns:xlink="http://www.w3.org/1999/xlink" x="0px" y="0px"
	 viewBox="0 0 20 20" style="enable-background:new 0 0 20 20;" xml:space="preserve">
<path d="M5.13,15.938c-0.069,0.078-0.156,0.065-0.26-0.039c-0.113-0.095-0.13-0.178-0.052-0.247c0.069-0.078,0.156-0.065,0.26,0.039
	C5.182,15.786,5.2,15.868,5.13,15.938z M4.583,15.143c0.078,0.104,0.078,0.187,0,0.247c-0.069,0.052-0.143,0.022-0.221-0.091
	c-0.078-0.113-0.078-0.191,0-0.234C4.44,15.004,4.514,15.03,4.583,15.143z M3.789,14.362c-0.043,0.061-0.1,0.069-0.169,0.026
	c-0.087-0.043-0.117-0.095-0.091-0.156c0.026-0.043,0.082-0.052,0.169-0.026C3.785,14.249,3.815,14.301,3.789,14.362z M4.193,14.805
	c-0.052,0.061-0.122,0.048-0.208-0.039c-0.078-0.095-0.087-0.165-0.026-0.208c0.052-0.052,0.122-0.039,0.208,0.039
	C4.245,14.692,4.253,14.761,4.193,14.805z M5.872,16.263c-0.035,0.104-0.117,0.13-0.247,0.078c-0.148-0.035-0.204-0.1-0.169-0.195
	c0.035-0.095,0.117-0.126,0.247-0.091C5.842,16.098,5.898,16.168,5.872,16.263z M6.693,16.328c0,0.095-0.069,0.143-0.208,0.143
	c-0.148,0.017-0.221-0.03-0.221-0.143c0-0.095,0.069-0.143,0.208-0.143C6.619,16.168,6.693,16.215,6.693,16.328z M7.448,16.198
	c0.017,0.087-0.043,0.148-0.182,0.182c-0.139,0.035-0.217,0-0.234-0.104c-0.017-0.104,0.043-0.169,0.182-0.195
	C7.352,16.063,7.431,16.102,7.448,16.198z M20,3.75v12.5c0,1.033-0.367,1.916-1.1,2.65S17.283,20,16.25,20h-2.917
	c-0.139,0-0.245-0.004-0.319-0.013c-0.074-0.009-0.158-0.03-0.254-0.065s-0.165-0.098-0.208-0.189
	c-0.043-0.091-0.065-0.211-0.065-0.358v-3.112c0-0.842-0.226-1.458-0.677-1.849c0.495-0.052,0.94-0.13,1.335-0.234
	s0.803-0.273,1.224-0.508c0.421-0.234,0.773-0.523,1.055-0.866c0.282-0.343,0.512-0.799,0.69-1.367
	c0.178-0.569,0.267-1.222,0.267-1.96c0-1.05-0.343-1.944-1.029-2.682c0.321-0.79,0.286-1.675-0.104-2.656
	c-0.243-0.078-0.595-0.03-1.055,0.143c-0.46,0.174-0.859,0.365-1.198,0.573L12.5,5.169c-0.807-0.226-1.641-0.339-2.5-0.339
	S8.307,4.944,7.5,5.169C7.361,5.074,7.177,4.957,6.947,4.818c-0.23-0.139-0.592-0.306-1.087-0.501S4.991,4.063,4.74,4.141
	C4.358,5.122,4.327,6.007,4.648,6.797C3.963,7.535,3.62,8.429,3.62,9.479c0,0.738,0.089,1.389,0.267,1.953s0.406,1.02,0.684,1.367
	c0.278,0.347,0.627,0.638,1.048,0.872s0.829,0.404,1.224,0.508c0.395,0.104,0.84,0.182,1.335,0.234
	c-0.347,0.313-0.56,0.76-0.638,1.341c-0.182,0.087-0.378,0.152-0.586,0.195c-0.208,0.043-0.456,0.065-0.742,0.065
	s-0.571-0.093-0.853-0.28c-0.282-0.187-0.523-0.458-0.723-0.814c-0.165-0.278-0.375-0.503-0.632-0.677s-0.471-0.278-0.645-0.313
	l-0.26-0.039c-0.182,0-0.308,0.02-0.378,0.059c-0.069,0.039-0.091,0.089-0.065,0.15s0.065,0.122,0.117,0.182
	s0.109,0.113,0.169,0.156l0.091,0.065C3.225,14.592,3.414,14.757,3.6,15c0.187,0.243,0.323,0.464,0.41,0.664l0.13,0.299
	c0.113,0.33,0.304,0.597,0.573,0.801c0.269,0.204,0.56,0.334,0.872,0.391c0.313,0.056,0.614,0.087,0.905,0.091
	c0.291,0.004,0.532-0.011,0.723-0.046l0.299-0.052c0,0.33,0.002,0.777,0.007,1.341c0.004,0.564,0.007,0.859,0.007,0.885
	c0,0.191-0.048,0.336-0.143,0.436c-0.095,0.1-0.191,0.156-0.286,0.169C7.001,19.993,6.858,20,6.667,20H3.75
	c-1.033,0-1.916-0.367-2.65-1.1S0,17.283,0,16.25V3.75C0,2.717,0.367,1.834,1.1,1.1S2.717,0,3.75,0h12.5
	c1.033,0,1.916,0.367,2.65,1.1S20,2.717,20,3.75z"/>
</svg>
